<svg xmlns="http://www.w3.org/2000/svg" xmlns:xlink="http://www.w3.org/1999/xlink" version="1.1" id="Your_Icon" x="0px" y="0px" width="100px" height="100px" viewBox="0 0 100 100" enable-background="new 0 0 100 100" xml:space="preserve">
<path fill="#000000" d="M52.77,7.598c0,4.326-3.504,7.831-7.832,7.831c-4.324,0-7.831-3.505-7.831-7.831  c0-4.326,3.506-7.831,7.831-7.831C49.265-0.233,52.77,3.272,52.77,7.598z M63.375,55.032c3.961-7.782,0.544-14.331,0.548-14.338  l-5.202-15.753h8.491L80.377,38.66c0.878-3.358,0.135-7.072-2.343-9.869l-8.591-9.026h-21.3c-2.977,0-7.336,2.282-9.733,5.262  l-8.199,7.752H11.264c1.755,2.994,4.906,5.038,8.634,5.265h12.365l9.147-8.717l9.212,30.776l-12.49,26.224  c-2.278,4.832-0.651,10.491,3.591,13.442C41.723,99.77,63.387,55.044,63.375,55.032z M73.193,69.6l-8.271-8.566l-4.135,9.578  l7.698,7.974H84.54c5.338,0,9.76-3.89,10.619-8.985H73.193L73.193,69.6z"/>
</svg>